name C:\Users\antoi\Documents\MyRepositories\upper-imu-dc\Results\main_tracking\Case_99\kinematics.mot
datacolumns 43
datarows 7
range 1.30000000 1.42000000
endheader 
time	clav_prot	clav_elev	scapula_abduction	scapula_elevation	scapula_upward_rot	scapula_winging	plane_elv	shoulder_elv	axial_rot	TrapeziusScapula_M/activation	TrapeziusScapula_S/activation	TrapeziusScapula_I/activation	TrapeziusClavicle_S/activation	SerratusAnterior_I/activation	SerratusAnterior_M/activation	SerratusAnterior_S/activation	Rhomboideus_S/activation	Rhomboideus_I/activation	LevatorScapulae/activation	Coracobrachialis/activation	DeltoideusClavicle_A/activation	DeltoideusScapula_P/activation	DeltoideusScapula_M/activation	LatissimusDorsi_S/activation	LatissimusDorsi_M/activation	LatissimusDorsi_I/activation	PectoralisMajorClavicle_S/activation	PectoralisMajorThorax_I/activation	PectoralisMajorThorax_M/activation	TeresMajor/activation	Infraspinatus_I/activation	Infraspinatus_S/activation	PectoralisMinor/activation	TeresMinor/activation	Subscapularis_S/activation	Subscapularis_M/activation	Subscapularis_I/activation	Supraspinatus_P/activation	Supraspinatus_A/activation	TRIlong/activation	BIC_long/activation	BIC_brevis/activation	
          1.30000000	        -36.04923017	          1.38902137	        -28.94986608	         -3.61912345	         25.06642585	         -1.82499989	         -0.20921287	          1.86615658	         57.84763712	          0.01000036	          0.03165546	          0.01000007	          0.02034752	          0.03410485	          0.05712671	          0.01000023	          0.01000075	          0.01000089	          0.01962005	          0.01000034	          0.01899199	          0.01000038	          0.04257185	          0.01000007	          0.01000000	          0.01000014	          0.01393659	          0.01000000	          0.01722889	          0.01000011	          0.01855809	          0.01356597	          0.01000000	          0.01000192	          0.01000004	          0.01000011	          0.01000001	          0.01000018	          0.01000048	          0.01000026	          0.01886748	          0.01000025	
          1.32000000	        -36.07275312	          1.45365623	        -28.66473124	         -3.67962939	         25.56842413	         -1.97747781	          0.41422004	          1.56673376	         57.80894732	          0.01000037	          0.03128102	          0.01000005	          0.01994109	          0.03234780	          0.05658060	          0.01000024	          0.01000076	          0.01000063	          0.02011723	          0.01000033	          0.01777320	          0.01000038	          0.04440452	          0.01000007	          0.01000000	          0.01000013	          0.01260058	          0.01000000	          0.01554621	          0.01000011	          0.01851628	          0.01358532	          0.01000000	          0.01000209	          0.01000003	          0.01000012	          0.01000001	          0.01000016	          0.01000000	          0.01000024	          0.01737711	          0.01000023	
          1.34000000	        -36.09958847	          1.51594700	        -28.42185664	         -3.72898238	         26.01293818	         -2.11574200	          1.01591563	          1.28686788	         57.78145603	          0.01000038	          0.03080986	          0.01000007	          0.01954386	          0.03095549	          0.05597758	          0.01000023	          0.01000078	          0.01000148	          0.02027446	          0.01000033	          0.01697511	          0.01000044	          0.04619255	          0.01000007	          0.01000000	          0.01000013	          0.01155583	          0.01000000	          0.01420371	          0.01000012	          0.01858497	          0.01368838	          0.01000000	          0.01000226	          0.01000003	          0.01000014	          0.01000001	          0.01000017	          0.01000000	          0.01000025	          0.01632869	          0.01000024	
          1.36000000	        -36.12652789	          1.57112195	        -28.22097330	         -3.76904868	         26.39157912	         -2.23527125	          1.58850722	          1.03775178	         57.76174797	          0.01000039	          0.03023836	          0.01000007	          0.01912294	          0.03005194	          0.05541486	          0.01000024	          0.01000074	          0.01000126	          0.02015248	          0.01000032	          0.01651082	          0.01000041	          0.04798979	          0.01000007	          0.01000001	          0.01000013	          0.01074817	          0.01000000	          0.01314009	          0.01000012	          0.01881743	          0.01392520	          0.01000000	          0.01000235	          0.01000008	          0.01000018	          0.01000005	          0.01000023	          0.01000000	          0.01000027	          0.01579396	          0.01000023	
          1.38000000	        -36.15065544	          1.61432468	        -28.05971930	         -3.80250771	         26.69955991	         -2.33249078	          2.12572710	          0.82829262	         57.74538274	          0.01000039	          0.02962284	          0.01000010	          0.01874989	          0.02956752	          0.05482247	          0.01000023	          0.01000066	          0.01000020	          0.01985623	          0.01000033	          0.01675154	          0.01000044	          0.04989363	          0.01000005	          0.01000000	          0.01000011	          0.01006952	          0.01000000	          0.01230832	          0.01000016	          0.01897662	          0.01431184	          0.01000000	          0.01000163	          0.01000016	          0.01000024	          0.01000014	          0.01000031	          0.01000013	          0.01000030	          0.01538463	          0.01000024	
          1.40000000	        -36.16953820	          1.64114013	        -27.93429721	         -3.83236890	         26.93534955	         -2.40489718	          2.62163246	          0.66509431	         57.73023831	          0.01000040	          0.02891488	          0.01000008	          0.01835086	          0.02947570	          0.05420881	          0.01000026	          0.01000063	          0.01000030	          0.01950105	          0.01000031	          0.01697919	          0.01000038	          0.05186790	          0.01000007	          0.01000000	          0.01000012	          0.01000133	          0.01000000	          0.01152706	          0.01000013	          0.01920934	          0.01476994	          0.01000000	          0.01000114	          0.01000020	          0.01000026	          0.01000014	          0.01000040	          0.01000023	          0.01000025	          0.01510757	          0.01000023	
          1.42000000	        -36.18114141	          1.64833292	        -27.83970695	         -3.86136280	         27.10046599	         -2.45118962	          3.07141521	          0.55247745	         57.71205242	          0.01000037	          0.02818905	          0.01000011	          0.01801446	          0.02942340	          0.05378247	          0.01000029	          0.01000050	          0.01000011	          0.01880775	          0.01000032	          0.01746484	          0.01000041	          0.05375567	          0.01000006	          0.01000000	          0.01000012	          0.01000090	          0.01000000	          0.01078887	          0.01000020	          0.01965967	          0.01511949	          0.01000000	          0.01000380	          0.01000025	          0.01000031	          0.01000024	          0.01000044	          0.01000025	          0.01000032	          0.01535903	          0.01000024	
